<svg width="15" height="14" viewBox="0 0 15 14" fill="none" xmlns="http://www.w3.org/2000/svg">
<path fill-rule="evenodd" clip-rule="evenodd" d="M4.15119 2.43523C4.40761 1.41258 3.69201 0.538574 2.58881 0.538574C1.86128 0.538574 1.28285 0.889366 1.05624 1.46609C0.69248 2.38766 1.2411 3.34491 2.22504 3.49949C3.14935 3.65408 3.9544 3.20816 4.15119 2.43523ZM8.47479 5.88385C8.50162 5.85412 8.521 5.8348 8.53591 5.81993L8.53591 5.81993C8.55082 5.80507 8.56126 5.79466 8.5702 5.78277C9.32754 4.67689 10.4129 4.35582 11.6771 4.54608C13.1381 4.77202 14.0743 5.78872 14.3128 7.34647C14.3665 7.7151 14.3963 8.08967 14.3963 8.4583C14.3963 8.84625 14.396 9.2342 14.3956 9.62216C14.3945 10.786 14.3934 11.9499 14.4023 13.1137C14.4023 13.2861 14.3606 13.3397 14.1817 13.3397C13.3647 13.3278 12.5477 13.3278 11.7367 13.3397C11.5578 13.3397 11.5101 13.2921 11.5161 13.1137C11.522 11.663 11.522 10.2182 11.5161 8.76747C11.5161 8.44046 11.4922 8.11345 11.4028 7.79239C11.1046 6.76974 9.94176 6.41301 9.1069 7.09081C8.65965 7.45944 8.48075 7.94103 8.48671 8.51181C8.49069 9.42325 8.48936 10.3321 8.48804 11.2417V11.2421C8.48738 11.6971 8.48671 12.1524 8.48671 12.6083C8.48671 12.6593 8.48574 12.7103 8.48477 12.7612V12.7612C8.48233 12.8886 8.4799 13.016 8.49268 13.1434C8.5046 13.298 8.43901 13.3278 8.30185 13.3278C7.47295 13.3218 6.63809 13.3218 5.8092 13.3278C5.66011 13.3278 5.60645 13.298 5.60645 13.1316C5.61837 11.9008 5.62434 10.6701 5.62434 9.43933V9.43914C5.62434 7.92307 5.62434 6.407 5.61241 4.89687C5.61241 4.7304 5.64819 4.68283 5.81516 4.68283C6.64406 4.69472 7.47892 4.68878 8.30782 4.68283C8.4569 4.68283 8.49864 4.72445 8.49268 4.87309C8.47288 5.1445 8.47362 5.40772 8.47445 5.70015C8.47462 5.76005 8.47479 5.82117 8.47479 5.88385ZM4.00841 9.02363C4.00841 10.3911 4.00841 11.7527 4.01437 13.1202C4.01437 13.2926 3.97859 13.352 3.79373 13.3461C2.97079 13.3342 2.14786 13.3401 1.32493 13.3461C1.16988 13.3461 1.12217 13.3104 1.12217 13.1499C1.12217 10.3971 1.12217 7.64425 1.11621 4.89143C1.11621 4.74874 1.15199 4.70117 1.30107 4.70117C2.1419 4.70712 2.97676 4.70712 3.81758 4.70117C3.98455 4.70117 4.00841 4.76063 4.00841 4.90927V9.02363Z" fill="white"/>
</svg>
