<svg width="18" height="14" viewBox="0 0 18 14" fill="none" xmlns="http://www.w3.org/2000/svg">
<path d="M16.2532 3.66003C16.2626 3.80236 16.2626 3.95075 16.2626 4.09611C16.2626 8.54178 12.756 13.6628 6.34801 13.6628C4.37199 13.6628 2.54025 13.1086 0.99707 12.1546C1.27936 12.1849 1.5491 12.197 1.83766 12.197C3.46866 12.197 4.96793 11.664 6.16295 10.7616C4.63232 10.7313 3.34634 9.76222 2.90722 8.42973C3.44357 8.50544 3.9266 8.50544 4.47863 8.36916C3.6905 8.21456 2.98211 7.80129 2.4738 7.19955C1.9655 6.59781 1.68864 5.84472 1.69025 5.06822V5.02583C2.15132 5.27718 2.69394 5.43163 3.26165 5.45283C2.7844 5.14573 2.39301 4.72968 2.12218 4.24157C1.85135 3.75345 1.70945 3.20835 1.70907 2.6546C1.70907 2.02773 1.87844 1.45536 2.18268 0.958709C3.05747 1.99846 4.14908 2.84885 5.38655 3.4546C6.62402 4.06035 7.97966 4.4079 9.36536 4.47466C8.87292 2.18823 10.6419 0.337891 12.7685 0.337891C13.7722 0.337891 14.6755 0.743694 15.3122 1.39782C16.0995 1.25549 16.8523 0.970822 17.5235 0.589246C17.2632 1.36754 16.7174 2.0247 15.9929 2.43959C16.6954 2.36691 17.3729 2.17915 18.0002 1.91568C17.5266 2.58798 16.9338 3.18457 16.2532 3.66003Z" fill="white"/>
</svg>
